<svg version="1.1" id="图层_1" x="0px" y="0px" width="100px" height="100px" viewBox="0 0 100 100" enable-background="new 0 0 100 100" xml:space="preserve" xmlns="http://www.w3.org/2000/svg" xmlns:xlink="http://www.w3.org/1999/xlink" xmlns:xml="http://www.w3.org/XML/1998/namespace">
  <path fill="#404040" d="M80,0H20C8.954,0,0,8.954,0,20v60c0,11.046,8.954,20,20,20h60c11.046,0,20-8.954,20-20V20
	C100,8.954,91.046,0,80,0z M95,80c0,8.271-6.729,15-15,15H20c-8.271,0-15-6.729-15-15V20c0-8.271,6.729-15,15-15h60
	c8.271,0,15,6.729,15,15V80z" class="color c1"/>
</svg>