<svg xmlns="http://www.w3.org/2000/svg" data-name="Layer 2" viewBox="0 0 28 26.184788583028492" x="0px" y="0px" width="28" height="26.184788583028492"><path transform="translate(-2,-3.861211416971506)" d="M29.707,7.293l-3,-3c-0.3905,-0.39038 -1.0235,-0.39038 -1.414,0l-3,3c-0.18755,0.18749 -0.29294,0.44181 -0.293,0.707v3h-1.359l0.351,-2.639c0.034,-0.26311 -0.03794,-0.52895 -0.2,-0.739l-2.577,-3.369c-0.33534,-0.43759 -0.96157,-0.52124 -1.4,-0.187l-3.37,2.579c-0.21072,0.16102 -0.34884,0.39915 -0.384,0.662l-0.49,3.693h-2.571v-3c-0.00006,-0.26519 -0.10545,-0.51951 -0.293,-0.707l-3,-3c-0.3905,-0.39038 -1.0235,-0.39038 -1.414,0l-3,3c-0.18755,0.18749 -0.29294,0.44181 -0.293,0.707v21c0,0.55228 0.44772,1 1,1h6c0.55228,0 1,-0.44772 1,-1v-3h0.578l-0.278,2.124c-0.07276,0.54728 0.31176,1.04997 0.859,1.123l5.947,0.79c0.04409,0.00589 0.08852,0.0089 0.133,0.009c0.50079,-0.00063 0.9239,-0.37159 0.99,-0.868l0.419,-3.178h3.352v3c0,0.55228 0.44772,1 1,1h6c0.55228,0 1,-0.44772 1,-1v-21c-0.00006,-0.26519 -0.10545,-0.51951 -0.293,-0.707zM10,22v-7h2.039l-0.93,7zM19.179,22l0.93,-7h1.891v7z" fill="#000000" class="fill c1"></path></svg>
